# Blender 4.3.2
# www.blender.org
o Cube
v 1.000000 0.787673 -0.787673
v 1.000000 -0.787673 -0.787673
v 1.000000 0.787673 0.787673
v 1.000000 -0.787673 0.787673
v -1.000000 1.000000 -1.000000
v -1.000000 -1.000000 -1.000000
v -1.000000 1.000000 1.000000
v -1.000000 -1.000000 1.000000
v 1.000000 1.000000 -1.000000
v 1.000000 -1.000000 -1.000000
v 1.000000 1.000000 1.000000
v 1.000000 -1.000000 1.000000
v 0.553473 0.787673 -0.787673
v 0.553473 -0.787673 -0.787673
v 0.553473 0.787673 0.787673
v 0.553473 -0.787673 0.787673
vn -0.0000 1.0000 -0.0000
vn -0.0000 -0.0000 1.0000
vn -1.0000 -0.0000 -0.0000
vn -0.0000 -1.0000 -0.0000
vn -0.0000 -0.0000 -1.0000
vn 1.0000 -0.0000 -0.0000
vt 0.625000 0.500000
vt 0.875000 0.500000
vt 0.875000 0.750000
vt 0.625000 0.750000
vt 0.375000 0.750000
vt 0.625000 1.000000
vt 0.375000 1.000000
vt 0.375000 0.000000
vt 0.625000 0.000000
vt 0.625000 0.250000
vt 0.375000 0.250000
vt 0.125000 0.500000
vt 0.375000 0.500000
vt 0.125000 0.750000
vt 0.401541 0.723459
vt 0.401541 0.526541
vt 0.598459 0.526541
vt 0.598459 0.723459
s 0
f 9/1/1 5/2/1 7/3/1 11/4/1
f 12/5/2 11/4/2 7/6/2 8/7/2
f 8/8/3 7/9/3 5/10/3 6/11/3
f 6/12/4 10/13/4 12/5/4 8/14/4
f 4/15/1 2/16/1 14/16/1 16/15/1
f 6/11/5 5/10/5 9/1/5 10/13/5
f 1/17/6 2/16/6 10/13/6 9/1/6
f 4/15/6 3/18/6 11/4/6 12/5/6
f 3/18/6 1/17/6 9/1/6 11/4/6
f 2/16/6 4/15/6 12/5/6 10/13/6
f 14/16/6 13/17/6 15/18/6 16/15/6
f 3/18/5 4/15/5 16/15/5 15/18/5
f 1/17/4 3/18/4 15/18/4 13/17/4
f 2/16/2 1/17/2 13/17/2 14/16/2
