# Blender 4.3.2
# www.blender.org
o Root5$hull
v 52.062054 -70.346184 30.415508
v 58.329281 -70.346184 15.285089
v 52.062054 25.857189 30.415524
v 58.329281 25.857189 15.285103
v 84.220398 -70.346191 43.735931
v 84.220398 25.857185 43.735947
v 90.487625 -70.346184 28.605513
v 90.487625 25.857189 28.605528
vn -0.0000 -1.0000 -0.0000
vn 0.3827 -0.0000 -0.9239
vn 0.9239 -0.0000 0.3827
vn -0.0000 1.0000 -0.0000
vn -0.3827 -0.0000 0.9239
vn -0.9239 -0.0000 -0.3827
vt 0.212450 0.083413
vt 0.725216 0.083413
vt 0.725216 0.978920
vt 0.212450 0.978920
vt 0.000000 0.000000
vt 1.000000 0.000000
vt 1.000000 1.000000
vt 0.000000 1.000000
vt 0.014116 0.325627
vt 1.002506 0.325627
vt 1.002506 0.674044
vt 0.014116 0.674044
vt 0.500672 0.000000
vt 1.000126 0.000000
vt 1.000126 1.000000
vt 0.500672 1.000000
s 0
f 1/1/1 2/2/1 7/3/1 5/4/1
f 2/5/2 4/6/2 8/7/2 7/8/2
f 6/9/3 5/10/3 7/11/3 8/12/3
f 4/13/4 3/14/4 6/15/4 8/16/4
f 3/5/5 1/6/5 5/7/5 6/8/5
f 2/2/6 1/1/6 3/14/6 4/13/6
